<?xml version="1.0" encoding="utf-8"?>
<svg id="master-artboard" viewBox="0 0 748.6197509765625 730.8424072265625" version="1.1" xmlns="http://www.w3.org/2000/svg" x="0px" y="0px" style="enable-background:new 0 0 1096 780;" width="748.6197509765625px" height="730.8424072265625px"><rect id="ee-background" x="0" y="0" width="748.6197509765625" height="730.8424072265625" style="fill: rgb(0, 0, 0); fill-opacity: 0; pointer-events: none;"/>

<path class="st1" d="M978,205.2c-2.9-6.3-6.5-12.3-10.5-17.9c-3.9,12-12.3,31.7-29.6,52.1c-24.2,28.6-71.1,63.7-157.5,71.5&#10;&#9;&#9;&#9;c4.3,7.1,9.4,13.6,15.2,19.6C826.3,326.8,941.3,306.2,978,205.2z" style="fill: rgb(255, 255, 255);" transform="matrix(2.247399091720581, 0, 0, 2.247399091720581, -1611.2775249481201, -214.25430297851562)"/><path class="st1" d="M965.3,249.7c2.1,5.4,10.3,27.4,13.2,49.2c2.7-6.1,5-12.4,6.6-18.9c-0.5-0.6-0.9-1.4-1.1-2.2&#10;&#9;&#9;&#9;c-1.6-10.9-8-28.8-11.8-38.7C970.1,242.7,967.8,246.3,965.3,249.7z" style="fill: rgb(255, 255, 255);" transform="matrix(2.247399091720581, 0, 0, 2.247399091720581, -1611.2775249481201, -214.25430297851562)"/><path class="st1" d="M767.4,280.1c1.9,7.6,4.6,14.9,8,21.8c67.9-5.4,121.5-28.8,155-68.1c20-23.5,27.6-46.3,30-55.5&#10;&#9;&#9;&#9;c-4.3-4.9-9.1-9.4-14.2-13.5C905.7,266.5,800.5,278.8,767.4,280.1z" style="fill: rgb(255, 255, 255);" transform="matrix(2.247399091720581, 0, 0, 2.247399091720581, -1611.2775249481201, -214.25430297851562)"/><path class="st1" d="M988.5,252.7c0-12.1-1.9-23.7-5.5-34.6c-1.5,3.5-3.1,6.9-4.8,10.2c0.7,1.7,5.9,14.6,10.1,28&#10;&#9;&#9;&#9;C988.5,255.1,988.5,253.9,988.5,252.7z" style="fill: rgb(255, 255, 255);" transform="matrix(2.247399091720581, 0, 0, 2.247399091720581, -1611.2775249481201, -214.25430297851562)"/><path class="st1" d="M820.2,336c-6,1.3-11.3,2.2-15.8,2.9c4.6,3.9,9.6,7.3,14.8,10.4C819.7,344.6,820,339.7,820.2,336z" style="fill: rgb(255, 255, 255);" transform="matrix(2.247399091720581, 0, 0, 2.247399091720581, -1611.2775249481201, -214.25430297851562)"/><path class="st1" d="M904.6,361.3c4.6-15.7,2.1-43,0-57.1c-6.5,3.8-13,7.2-19.5,10.2c0.8,6.8,3,30-1.7,50.2&#10;&#9;&#9;&#9;C890.7,364.2,897.8,363.1,904.6,361.3z" style="fill: rgb(255, 255, 255);" transform="matrix(2.247399091720581, 0, 0, 2.247399091720581, -1611.2775249481201, -214.25430297851562)"/><path class="st1" d="M828.1,354.1c5.2,2.5,10.6,4.5,16.2,6.2c2.2-11.3,3.1-24.8,3.4-31.4c-6.3,1.9-12.3,3.6-18,4.9&#10;&#9;&#9;&#9;C829.6,337.3,829.1,346.3,828.1,354.1z" style="fill: rgb(255, 255, 255);" transform="matrix(2.247399091720581, 0, 0, 2.247399091720581, -1611.2775249481201, -214.25430297851562)"/><path class="st1" d="M853.5,362.6c6.5,1.3,13.3,2.1,20.2,2.3c4.5-16.7,3.3-37.2,2.4-46.3c-6.3,2.7-12.6,5.1-18.7,7.2&#10;&#9;&#9;&#9;C857.2,329.2,856.4,347.5,853.5,362.6z" style="fill: rgb(255, 255, 255);" transform="matrix(2.247399091720581, 0, 0, 2.247399091720581, -1611.2775249481201, -214.25430297851562)"/><path class="st1" d="M936.2,347.6c3.1-15.3-0.4-46.4-3-63.3c-6.5,5.4-13.1,10.2-19.9,14.7c0.8,5,5.9,36.7,1.8,59.1&#10;&#9;&#9;&#9;C922.5,355.3,929.6,351.7,936.2,347.6z" style="fill: rgb(255, 255, 255);" transform="matrix(2.247399091720581, 0, 0, 2.247399091720581, -1611.2775249481201, -214.25430297851562)"/><path class="st1" d="M765.9,232.4c-0.6,3.5-1.1,7.1-1.4,10.8c4.9-0.1,9.7-0.5,14.3-1C775.7,238.7,771.2,234.7,765.9,232.4z" style="fill: rgb(255, 255, 255);" transform="matrix(2.247399091720581, 0, 0, 2.247399091720581, -1611.2775249481201, -214.25430297851562)"/><path class="st1" d="M 938.2 159.1 C 932.8000000000001 155.5 927.1 152.4 921.2 149.79999999999998 C 915.7 161.1 902.8369750976562 182.35033874511717 881.8369750976562 202.85033874511717 C 881.5369750976563 204.25033874511718 883.6430329214778 201.1181293753033 882.597998046875 202.28325805664062 C 881.208740234375 203.83224487304688 882.3046264648438 202.6792205810547 881.9046264648438 202.7792205810547 C 856.6046264648438 226.1792205810547 816.1 251.3 764.1 252.6 L 764.1 252.7 C 764.1 258.9 764.6 264.9 765.6 270.8 C 795 269.8 899.7 259.5 938.2 159.1 Z" style="fill: rgb(255, 255, 255);" transform="matrix(2.247399091720581, 0, 0, 2.247399091720581, -1611.2775249481201, -214.25430297851562)"/><path class="st1" d="M907.7,155.2c1.9-3.4,3.5-6.4,4.7-8.8c-5.9-2-12.1-3.6-18.4-4.6C899.1,146.4,904.1,151.2,907.7,155.2z" style="fill: rgb(255, 255, 255);" transform="matrix(2.247399091720581, 0, 0, 2.247399091720581, -1611.2775249481201, -214.25430297851562)"/><path class="st1" d="M970.1,314.2c0.4-19.3-7.4-44-11.6-55.6c-5.3,6.6-11,12.6-16.9,18.2c0.9,5.1,6.5,39.8,5,63.3&#10;&#9;&#9;&#9;C955.7,332.8,963.7,324,970.1,314.2z" style="fill: rgb(255, 255, 255);" transform="matrix(2.247399091720581, 0, 0, 2.247399091720581, -1611.2775249481201, -214.25430297851562)"/><path class="st1" d="M823.5,231c7.5-3.1,14.5-6.6,21-10.4c-5.9-12.1-32.3-33-49.4-45.5c-5.9,6.2-11.1,13-15.4,20.3&#10;&#9;&#9;&#9;C793.1,202.7,815.2,216.2,823.5,231z" style="fill: rgb(255, 255, 255);" transform="matrix(2.247399091720581, 0, 0, 2.247399091720581, -1611.2775249481201, -214.25430297851562)"/><path class="st1" d="M789.7,240.6c8.8-1.5,17.1-3.6,24.8-6.2c-7.7-12.3-27.2-24.1-39.4-30.5c-3,6.1-5.4,12.5-7.2,19.2&#10;&#9;&#9;&#9;C778.7,227,786.4,236.2,789.7,240.6z" style="fill: rgb(255, 255, 255);" transform="matrix(2.247399091720581, 0, 0, 2.247399091720581, -1611.2775249481201, -214.25430297851562)"/><path class="st1" d="M852.5,215.6c7-4.7,13.4-9.8,19.1-15c-10.6-17.9-35.7-35.3-51.4-45.1c-6.5,3.8-12.6,8.1-18.1,13.1&#10;&#9;&#9;&#9;C817.7,180,844.4,200.8,852.5,215.6z" style="fill: rgb(255, 255, 255);" transform="matrix(2.247399091720581, 0, 0, 2.247399091720581, -1611.2775249481201, -214.25430297851562)"/><path class="st1" d="M899.4,168.6c1.1-1.6,2.2-3.3,3.2-4.8c-4-5.3-14.6-14.9-24.5-23.3c-0.6,0-1.2,0-1.8,0&#10;&#9;&#9;&#9;c-3.9,0-7.7,0.2-11.5,0.6C877.3,149.1,891.7,159.5,899.4,168.6z" style="fill: rgb(255, 255, 255);" transform="matrix(2.247399091720581, 0, 0, 2.247399091720581, -1611.2775249481201, -214.25430297851562)"/><path class="st1" d="M878.5,193.9c5.8-5.9,10.8-11.7,15.1-17.4c-6.8-9.6-27.4-23.6-42.8-33.2c-7.3,1.7-14.3,4.1-20.9,7.1&#10;&#9;&#9;&#9;C845.8,160.7,867.4,176.7,878.5,193.9z" style="fill: rgb(255, 255, 255);" transform="matrix(2.247399091720581, 0, 0, 2.247399091720581, -1611.2775249481201, -214.25430297851562)"/><path class="st1" d="M 889.2271850585937 97.54604034423828 L 886.2741943359374 135.7362823486328 L 896.7963134765624 135.889892578125 L 897.8388305664062 98.67788543701172 C 900.4246826171875 97.080078125 895.6685791015625 99.71436309814453 894.0625610351562 98.19552612304688 C 892.2061157226562 96.4398422241211 887.3390502929688 95.97112274169922 889.2271728515625 97.5460433959961 L 889.2271850585937 97.54604034423828 Z" style="fill: rgb(255, 255, 255);" transform="matrix(1.6586735248565674, -1.5164439678192139, 1.5164439678192139, 1.6586735248565674, -1502.3217144012451, 1284.3463134765625)"/>

<path d="M 372.01861572265625 576.2202758789062 C 368.25012877730734 579.6390459804089 297.6375410661923 646.4260546782955 273.6120910644531 708.0479736328125 C 329.6661611831076 666.9679208156786 394.1961788401918 589.7312707274648 388.76422119140625 591.07421875" style="fill: rgb(255, 255, 255); fill-opacity: 1; stroke: rgb(0, 0, 0); stroke-opacity: 1; stroke-width: 0; paint-order: fill;" transform="matrix(0.999955415725708, -0.009425676427781582, 0.009425676427781582, 0.999955415725708, -180.18969535827637, -8.582164764404297)"/><path d="M 540.9808959960938 676.4835815429688 L 756.3612670898438 704.33447265625" style="fill: rgb(255, 255, 255); fill-opacity: 1; stroke: rgb(0, 0, 0); stroke-opacity: 1; stroke-width: 0; paint-order: fill;" transform="matrix(1, 0, 0, 1, -203.85951042175293, -41.44135284423828)"/><path d="M 372.01861572265625 576.2202758789062 C 368.25012877730734 579.6390459804089 297.6375410661923 646.4260546782955 273.6120910644531 708.0479736328125 C 329.6661611831076 666.9679208156786 393.27106897691056 587.945931371996 387.839111328125 589.2888793945312" style="fill: rgb(255, 255, 255); fill-opacity: 1; stroke: rgb(0, 0, 0); stroke-opacity: 1; stroke-width: 0; paint-order: fill;" transform="matrix(0.15979978442192078, -0.9871554374694824, 0.9871554374694824, 0.15979978442192078, -118.31566429138184, 840.9379272460938)"/><path d="M 667.2383422851562 706.1912231445312" style="fill: rgb(255, 255, 255); fill-opacity: 1; stroke: rgb(0, 0, 0); stroke-opacity: 1; stroke-width: 0; paint-order: fill;" transform="matrix(1, 0, 0, 1, -203.85951042175293, -41.44135284423828)"/><path d="M 403.5830383300781 631.922119140625" style="fill: rgb(255, 255, 255); fill-opacity: 1; stroke: rgb(0, 0, 0); stroke-opacity: 1; stroke-width: 0; paint-order: fill;" transform="matrix(1, 0, 0, 1, -203.85951042175293, -41.44135284423828)"/><path d="M 589.2557983398438 299.56787109375" style="fill: rgb(255, 255, 255); fill-opacity: 1; stroke: rgb(0, 0, 0); stroke-opacity: 1; stroke-width: 0; paint-order: fill;" transform="matrix(1, 0, 0, 1, -203.85951042175293, -41.44135284423828)"/><path d="M 315.8834533691406 112.76163482666016" style="fill: rgb(255, 255, 255); fill-opacity: 1; stroke: rgb(0, 0, 0); stroke-opacity: 1; stroke-width: 0; paint-order: fill;" transform="matrix(1, 0, 0, 1, -203.85951042175293, -41.44135284423828)"/><g transform="matrix(0.4728633761405945, 0.03474985063076019, -0.03474985063076019, 0.4728633761405945, -185.51885795593262, 12.806110382080078)"><g id="g-1" transform="matrix(1, 0, 0, 1, 0, 0)">
	<g id="g-2">
		<path class="st0" d="M652,46c27.6,0,50,22.4,50,50s-22.4,50-50,50s-50-22.4-50-50S624.4,46,652,46z" style="fill: rgb(255, 255, 255);"/>
	</g>
</g></g><path d="M 356.8489990234375 165.82908630371094" style="fill: rgb(255, 255, 255); fill-opacity: 1; stroke: rgb(0, 0, 0); stroke-opacity: 1; stroke-width: 0; paint-order: fill;" transform="matrix(1, 0, 0, 1, -204.82325553894043, 0)"/><path class="st1" d="M 889.2271850585937 97.54604034423828 L 886.2016235351562 135.4967803955078 L 895.6763183593749 137.4580535888672 L 897.8388305664062 98.67788543701172 C 900.4246826171875 97.080078125 900.6373985100299 96.83270226018607 901.8895874023438 95.3870620727539 C 902.9953002929688 94.11052703857422 903.9673296790096 91.74135457145982 904.1695556640625 89.22039794921875 C 904.3375854492188 87.125732421875 903.2654418945312 84.32361602783203 901.659423828125 82.80477905273438 C 899.802978515625 81.0490951538086 896.8259887695312 79.48870086669922 894.9727783203125 79.3608627319336 C 892.7679993124804 79.20877270025345 890.0345483753346 79.93881526681798 888.3311157226562 81.34010314941406 C 886.3695068359375 82.95377349853516 884.8110304825528 85.10475056197629 884.7120361328125 87.46266174316406 C 884.654541015625 88.83226013183594 884.7571411132812 91.45724487304688 885.4141235351562 93.04155731201172 C 885.9868773029681 94.42275243777861 887.3390502929688 95.97112274169922 889.2271728515625 97.5460433959961 L 889.2271850585937 97.54604034423828 Z" style="fill: rgb(255, 255, 255);" transform="matrix(1.8344855308532715, 1.2982540130615234, -1.2982540130615234, 1.8344855308532715, -909.0474834442139, -1234.3670654296875)"/><g id="g-3" transform="matrix(0.06660179793834686, 0.46943601965904236, -0.46943601965904236, 0.06660179793834686, 616.5736713409424, -221.90386962890625)">
	<g id="g-4">
		<path class="st0" d="M652,46c27.6,0,50,22.4,50,50s-22.4,50-50,50s-50-22.4-50-50S624.4,46,652,46z" style="fill: rgb(255, 255, 255);"/>
	</g>
</g><path d="M 292.29638671875 122.16850280761719" style="fill: rgb(255, 255, 255); fill-opacity: 1; stroke: rgb(0, 0, 0); stroke-opacity: 1; stroke-width: 0; paint-order: fill;" transform="matrix(1, 0, 0, 1, -204.82325553894043, 0)"/><path d="M 301.9611511230469 179.08328247070312" style="fill: rgb(255, 255, 255); fill-opacity: 1; stroke: rgb(0, 0, 0); stroke-opacity: 1; stroke-width: 0; paint-order: fill;" transform="matrix(1, 0, 0, 1, -204.82325553894043, 0)"/><path d="M 284.2424011230469 125.9270248413086" style="fill: rgb(255, 255, 255); fill-opacity: 1; stroke: rgb(0, 0, 0); stroke-opacity: 1; stroke-width: 0; paint-order: fill;" transform="matrix(1, 0, 0, 1, -204.82325553894043, 0)"/><path d="M 386.25946044921875 74.91848754882812" style="fill: rgb(255, 255, 255); fill-opacity: 1; stroke: rgb(0, 0, 0); stroke-opacity: 1; stroke-width: 0; paint-order: fill;" transform="matrix(1, 0, 0, 1, -204.82325553894043, 0)"/></svg>